<svg id="eEZdp5HFoeX1" xmlns="http://www.w3.org/2000/svg" xmlns:xlink="http://www.w3.org/1999/xlink" viewBox="0 0 54 54" shape-rendering="geometricPrecision" text-rendering="geometricPrecision">
<style><![CDATA[
#eEZdp5HFoeX2_to {animation: eEZdp5HFoeX2_to__to 2000ms linear 1 normal forwards}@keyframes eEZdp5HFoeX2_to__to { 0% {transform: translate(12.6282px,12.63396px)} 100% {transform: translate(41.36px,12.63396px)}} #eEZdp5HFoeX3_to {animation: eEZdp5HFoeX3_to__to 2000ms linear 1 normal forwards}@keyframes eEZdp5HFoeX3_to__to { 0% {transform: translate(41.37185px,12.63396px)} 100% {transform: translate(41.37185px,41.36px)}} #eEZdp5HFoeX4_to {animation: eEZdp5HFoeX4_to__to 2000ms linear 1 normal forwards}@keyframes eEZdp5HFoeX4_to__to { 0% {transform: translate(12.6282px,41.36px)} 100% {transform: translate(12.6282px,12.63px)}} #eEZdp5HFoeX5_to {animation: eEZdp5HFoeX5_to__to 2000ms linear 1 normal forwards}@keyframes eEZdp5HFoeX5_to__to { 0% {transform: translate(41.37185px,41.358528px)} 100% {transform: translate(12.63px,41.358528px)}}
]]></style>
<g id="eEZdp5HFoeX2_to" transform="translate(12.6282,12.63396)"><path d="M5.49511,0.128973c-1.35265.295753-2.52564.940077-3.47672,1.890717-.79256.79219-1.320934,1.64777-1.7225,2.75685L0,5.62155v7.02415v7.0242l.29589.845c.77143,2.1759,2.29315,3.6863,4.50176,4.468l.80313.2852h7.02742h7.0274l.8454-.2958c2.1769-.7711,3.688-2.2921,4.47-4.4997l.2854-.8027v-7.0242-7.02415l-.2854-.80276c-.782-2.2076-2.2931-3.72862-4.47-4.499689l-.8454-.295755-6.7632-.021124c-5.32606-.010563-6.90062.010561-7.39729.126751ZM19.8352,3.69915c.7609.36969,1.3738.98232,1.7437,1.74283l.2958.60207v6.60165v6.6017l-.2853.5809c-.3698.75-1.025,1.4048-1.7647,1.7745l-.5918.2852h-6.6047-6.60472l-.58121-.2852c-.75029-.3697-1.40548-1.0245-1.77534-1.7639l-.28533-.5915-.0317-6.2848c-.02113-4.38351,0-6.45379.08454-6.83404C3.67749,5.01948,4.66027,3.94209,5.791,3.54071c.50724-.16901,1.02504-.17957,6.9957-.15844l6.4462.02112.6023.29576Z" transform="translate(-12.6282,-12.63396)" fill="#a8d4af"/></g><g id="eEZdp5HFoeX3_to" transform="translate(41.37185,12.63396)"><path d="M34.2388,0.128973c-1.3527.295753-2.5257.940077-3.4768,1.890717-.7925.79219-1.3209,1.64777-1.7225,2.75685l-.2958.84501v7.02415v7.0242l.2958.845c.7715,2.1759,2.2932,3.6863,4.5018,4.468l.8031.2852h7.0274h7.0274l.8454-.2958c2.1769-.7711,3.6881-2.2921,4.4701-4.4997L54,19.6699v-7.0242-7.02415l-.2853-.80276c-.782-2.2076-2.2932-3.72862-4.4701-4.499689l-.8454-.295755-6.7632-.021124c-5.326-.010563-6.9006.010561-7.3972.126751ZM48.5789,3.69915c.7608.36969,1.3737.98232,1.7436,1.74283l.2959.60207v6.60165v6.6017l-.2853.5809c-.3699.75-1.0251,1.4048-1.7648,1.7745l-.5918.2852h-6.6047-6.6047l-.5812-.2852c-.7503-.3697-1.4055-1.0245-1.7753-1.7639l-.2853-.5915-.0317-6.2848c-.0212-4.38351,0-6.45379.0845-6.83404.243-1.10908,1.2258-2.18647,2.3565-2.58785.5073-.16901,1.0251-.17957,6.9957-.15844l6.4462.02112.6024.29576Z" transform="translate(-41.37185,-12.63396)" fill="#a8d4af"/></g><g id="eEZdp5HFoeX4_to" transform="translate(12.6282,41.36)"><path d="M5.49511,28.8594c-1.35265.2958-2.52564.9401-3.47672,1.8908-.79256.7922-1.320934,1.6477-1.7225,2.7568L0,34.352v7.0242v7.0241l.29589.845c.77143,2.1759,2.29315,3.6864,4.50176,4.468l.80313.2852h7.02742h7.0274l.8454-.2957c2.1769-.7711,3.688-2.2921,4.47-4.4997l.2854-.8028v-7.0241-7.0242l-.2854-.8027c-.782-2.2076-2.2931-3.7287-4.47-4.4997l-.8454-.2958-6.7632-.0211c-5.32606-.0106-6.90062.0106-7.39729.1267ZM19.8352,32.4296c.7609.3697,1.3738.9823,1.7437,1.7429l.2958.602v6.6017v6.6016l-.2853.581c-.3698.7499-1.025,1.4048-1.7647,1.7745l-.5918.2852h-6.6047-6.60472l-.58121-.2852c-.75029-.3697-1.40548-1.0246-1.77534-1.764l-.28533-.5915-.0317-6.2847c-.02113-4.3835,0-6.4538.08454-6.8341.24305-1.1091,1.22583-2.1864,2.35656-2.5878.50724-.169,1.02504-.1796,6.9957-.1585l6.4462.0212.6023.2957Z" transform="translate(-12.6282,-41.364394)" fill="#a8d4af"/></g><g id="eEZdp5HFoeX5_to" transform="translate(41.37185,41.358528)"><path d="M40.1037,28.7538c-.0845.0212-.5178.0951-.951.1585-3.7832.6126-7.3339,3.2638-9.1092,6.8129-.9406,1.8696-1.2893,3.38-1.2998,5.5982c0,1.7217.1162,2.5245.5917,3.9821c1.0251,3.1688,3.3711,5.8834,6.4145,7.415.8983.4542,2.2826.9189,3.3499,1.1302c1.0885.2218,3.6881.1901,4.8082-.0528c4.4701-.9612,8.1159-4.2145,9.5002-8.4924.465-1.4365.5918-2.271.5918-3.9293c0-.8767-.0634-1.8485-.1479-2.271-1.004-5.0595-4.766-8.9676-9.7327-10.0979-.8243-.1901-3.5718-.3696-4.0157-.2535Zm2.9061,3.4857c1.8387.3275,3.5612,1.2358,4.9139,2.5879c3.6352,3.623,3.6352,9.4852.0106,13.1082s-9.4474,3.623-13.1038,0-3.6563-9.4958,0-13.1188c2.1981-2.1865,5.1358-3.1054,8.1793-2.5773Z" transform="translate(-41.37185,-41.358528)" fill="#a8d4af"/></g></svg>
