<svg width="200" height="200" viewBox="0 0 200 200" fill="none" xmlns="http://www.w3.org/2000/svg">
<rect x="3.5" y="3.5" width="193" height="193" rx="4.5" fill="white"/>
<g filter="url(#filter0_d_703_33)">
<path d="M92.0135 92L85.0055 35.744L84.6215 35.36L66.5735 90.08H58.1255L56.3015 88.256L37.5815 35.456L37.1975 35.936L31.4375 92H25.1975L30.4775 41.696C30.7975 38.816 30.9575 36.064 30.9575 33.44C31.0215 30.816 30.9895 28.896 30.8615 27.68L30.6695 25.856L31.7255 24.8H46.9895L64.9415 75.296L81.6455 24.8H96.7175L104.974 92H92.0135ZM126.691 73.472L119.299 92H112.675L138.403 29.024L136.483 25.856V24.8H150.307L178.051 92H164.995L157.315 73.472H126.691ZM144.355 41.696L141.763 35.744L128.707 68.288H155.203L144.355 41.696ZM69.398 114.352C63.126 114.352 58.134 116.912 54.422 122.032C50.71 127.152 48.854 134.192 48.854 143.152C48.854 152.432 50.87 159.472 54.902 164.272C58.998 169.008 64.854 171.376 72.47 171.376C76.31 171.376 79.958 170.8 83.414 169.648C86.934 168.496 89.462 167.344 90.998 166.192L93.398 164.464L95.51 166.576C95.318 166.896 94.998 167.344 94.55 167.92C94.166 168.432 93.206 169.424 91.67 170.896C90.134 172.304 88.438 173.552 86.582 174.64C84.726 175.664 82.23 176.624 79.094 177.52C75.958 178.416 72.598 178.864 69.014 178.864C58.774 178.864 50.518 175.696 44.246 169.36C37.974 162.96 34.838 154.608 34.838 144.304C34.838 134.064 37.974 125.776 44.246 119.44C50.582 113.104 59.03 109.936 69.59 109.936C77.59 109.936 83.926 111.728 88.598 115.312C93.27 118.832 95.606 123.472 95.606 129.232C95.606 130.384 95.51 131.44 95.318 132.4C95.126 133.36 94.902 134.032 94.646 134.416L94.358 134.896C91.542 135.536 87.83 135.856 83.222 135.856L82.166 134.896C82.934 133.552 83.318 131.376 83.318 128.368C83.318 123.888 82.07 120.432 79.574 118C77.142 115.568 73.75 114.352 69.398 114.352ZM139.606 116.08V178H127.03V116.08H120.214C116.95 116.08 114.006 116.304 111.382 116.752C108.758 117.136 106.934 117.52 105.91 117.904L104.374 118.576L103.318 117.52V110.8H163.318V117.52L162.358 118.576C159.094 116.912 153.814 116.08 146.518 116.08H139.606Z" fill="#22356F"/>
</g>
<rect x="3.5" y="3.5" width="193" height="193" rx="4.5" stroke="#22356F" stroke-width="7"/>
<defs>
<filter id="filter0_d_703_33" x="21.1975" y="24.8" width="160.853" height="162.064" filterUnits="userSpaceOnUse" color-interpolation-filters="sRGB">
<feFlood flood-opacity="0" result="BackgroundImageFix"/>
<feColorMatrix in="SourceAlpha" type="matrix" values="0 0 0 0 0 0 0 0 0 0 0 0 0 0 0 0 0 0 127 0" result="hardAlpha"/>
<feOffset dy="4"/>
<feGaussianBlur stdDeviation="2"/>
<feComposite in2="hardAlpha" operator="out"/>
<feColorMatrix type="matrix" values="0 0 0 0 1 0 0 0 0 1 0 0 0 0 1 0 0 0 0.05 0"/>
<feBlend mode="normal" in2="BackgroundImageFix" result="effect1_dropShadow_703_33"/>
<feBlend mode="normal" in="SourceGraphic" in2="effect1_dropShadow_703_33" result="shape"/>
</filter>
</defs>
</svg>
